<?xml version="1.0" standalone="no"?>
<!DOCTYPE svg PUBLIC "-//W3C//DTD SVG 1.1//EN" "http://www.w3.org/Graphics/SVG/1.1/DTD/svg11.dtd" >
<!--
2013-9-30: Created.
-->
<svg>
<metadata>
Created by iconfont
</metadata>
<defs>

<font id="iconfont" horiz-adv-x="1024" >
  <font-face
    font-family="iconfont"
    font-weight="500"
    font-stretch="normal"
    units-per-em="1024"
    ascent="896"
    descent="-128"
  />
    <missing-glyph />
    
    <glyph glyph-name="x" unicode="x" horiz-adv-x="1001"
d="M281 543q-27 -1 -53 -1h-83q-18 0 -36.5 -6t-32.5 -18.5t-23 -32t-9 -45.5v-76h912v41q0 16 -0.5 30t-0.5 18q0 13 -5 29t-17 29.5t-31.5 22.5t-49.5 9h-133v-97h-438v97zM955 310v-52q0 -23 0.5 -52t0.5 -58t-10.5 -47.5t-26 -30t-33 -16t-31.5 -4.5q-14 -1 -29.5 -0.5
t-29.5 0.5h-32l-45 128h-439l-44 -128h-29h-34q-20 0 -45 1q-25 0 -41 9.5t-25.5 23t-13.5 29.5t-4 30v167h911zM163 247q-12 0 -21 -8.5t-9 -21.5t9 -21.5t21 -8.5q13 0 22 8.5t9 21.5t-9 21.5t-22 8.5zM316 123q-8 -26 -14 -48q-5 -19 -10.5 -37t-7.5 -25t-3 -15t1 -14.5
t9.5 -10.5t21.5 -4h37h67h81h80h64h36q23 0 34 12t2 38q-5 13 -9.5 30.5t-9.5 34.5q-5 19 -11 39h-368zM336 498v228q0 11 2.5 23t10 21.5t20.5 15.5t34 6h188q31 0 51.5 -14.5t20.5 -52.5v-227h-327z" />
    

    
    <glyph glyph-name="radiooff" unicode="&#58963;" d="M510.669-115.507c-67.482 0-132.915 13.21-194.56 39.219-59.494 25.19-112.947 61.133-158.822 107.008s-81.92 99.328-107.008 158.822C24.269 251.187 11.059 316.518 11.059 384s13.21 132.813 39.219 194.458c25.19 59.494 61.133 112.947 107.008 158.822S256.614 819.2 316.109 844.288c61.645 26.01 126.976 39.219 194.458 39.219 67.379 0 132.813-13.21 194.458-39.219 59.494-25.19 112.947-61.133 158.822-107.008s81.92-99.328 107.008-158.822c26.01-61.645 39.219-126.976 39.219-194.458s-13.21-132.813-39.322-194.458c-25.088-59.494-61.133-112.947-107.008-158.822-45.875-45.875-99.226-81.92-158.72-107.008C643.482-102.298 578.048-115.507 510.669-115.507L510.669-115.507M510.566 840.09c-61.542 0-121.344-12.083-177.562-35.84-54.272-22.938-103.117-55.91-144.998-97.792s-74.752-90.624-97.792-144.998c-23.757-56.218-35.84-115.917-35.84-177.562 0-61.542 12.083-121.344 35.84-177.562 22.938-54.272 55.91-103.117 97.792-144.998s90.624-74.752 144.998-97.792c56.218-23.757 115.917-35.84 177.562-35.84l0.102 0 0 0c61.542 0 121.242 12.083 177.459 35.84 54.272 22.938 103.014 55.808 144.998 97.792s74.752 90.726 97.792 144.998c23.757 56.218 35.84 115.917 35.84 177.562 0 61.542-12.083 121.344-35.84 177.562-22.938 54.272-55.808 103.117-97.792 144.998-41.882 41.984-90.726 74.854-144.998 97.792C631.91 828.006 572.109 840.09 510.566 840.09z"  horiz-adv-x="1024" />

    
    <glyph glyph-name="more1" unicode="&#58960;" d="M326.24128 894.848 186.9056 755.54304 558.42816 384 186.9056 12.45696 326.24128-126.848 837.0944 384Z"  horiz-adv-x="1024" />

    
    <glyph glyph-name="editing" unicode="&#58886;" d="M989.845 502.963c-1.478 13.473-12.889 23.96-26.755 23.96-13.865 0-25.276-10.487-26.752-23.96h-0.173v-467.327c0-42.895-34.894-77.787-77.788-77.787h-691.11c-42.89 0-77.786 34.891-77.786 77.787v696.722c0 42.893 34.896 77.788 77.786 77.788l463.972 0.038c14.528 0.394 26.191 12.265 26.191 26.888s-11.663 26.496-26.191 26.888v0.039h-463.972c-72.587 0-131.639-59.054-131.639-131.639v-696.724c0-72.586 59.053-131.637 131.639-131.637h691.11c72.588 0 131.639 59.052 131.639 131.637v467.326h-0.172zM296.383 220.952l-0.122-0.502c-2.204-9.35-4.103-26.841 7.958-38.894 7.478-7.491 17.050-9.599 25.465-9.599 5.136 0 9.846 0.788 13.387 1.618l147.077 38.835 468.748 468.748c16.388 16.387 25.413 38.174 25.413 61.347 0 23.175-9.025 44.963-25.413 61.349l-32.439 32.439c-33.831 33.827-88.87 33.836-122.703 0.001l-468.792-468.793-38.578-146.551zM378.206 323.259l67.73-67.722-91.081-23.352 23.351 91.074zM410.621 367.009l366.34 366.337 78.983-78.982-366.339-366.339-78.983 78.983zM888.374 798.219l32.441-32.441c12.832-12.832 12.832-33.709 0-46.543l-26.796-26.792-78.978 78.982 26.792 26.794c12.834 12.836 33.715 12.828 46.54 0.001z"  horiz-adv-x="1024" />

    
    <glyph glyph-name="radiofill" unicode="&#58930;" d="M512 830.016611c-245.919634 0-446.016611-200.095256-446.016611-446.016611 0-245.952318 200.064292-446.016611 446.016611-446.016611S958.016611 138.047682 958.016611 384C958.016611 629.919634 757.952318 830.016611 512 830.016611zM512 223.99914c-88.223841 0-160.00086 71.775299-160.00086 160.00086s71.775299 159.99914 160.00086 159.99914 160.00086-71.775299 160.00086-159.99914S600.223841 223.99914 512 223.99914z"  horiz-adv-x="1024" />

    
    <glyph glyph-name="gouwuche1" unicode="&#58954;" d="M246.4-16a2.1 2.1 0 1 0 134.4 0 2.1 2.1 0 1 0-134.4 0ZM716.8-16a2.1 2.1 0 1 0 134.4 0 2.1 2.1 0 1 0-134.4 0ZM905.6 131.2l-537.6 0c-28.8 0-57.6 25.6-64 54.4l-96 566.4c-9.6 54.4-60.8 96-115.2 96l-22.4 0c-12.8 0-25.6-12.8-25.6-25.6 0-12.8 12.8-25.6 25.6-25.6l22.4 0c28.8 0 57.6-25.6 64-54.4l96-566.4c9.6-54.4 60.8-96 115.2-96l537.6 0c12.8 0 25.6 12.8 25.6 25.6C931.2 118.4 921.6 131.2 905.6 131.2zM880 716.8l-572.8 0c-12.8 0-25.6-12.8-25.6-25.6 0-12.8 12.8-25.6 25.6-25.6l572.8 0c25.6 0 38.4-16 32-41.6l-70.4-281.6c-6.4-32-41.6-57.6-73.6-60.8l-396.8-28.8c-12.8 0-25.6-12.8-22.4-28.8 0-12.8 12.8-25.6 28.8-22.4l396.8 28.8c54.4 3.2 105.6 48 118.4 99.2l70.4 281.6C976 665.6 937.6 716.8 880 716.8z"  horiz-adv-x="1024" />

    
    <glyph glyph-name="weibiaoti-3" unicode="&#58884;" d="M512 646.024c-99.388 0-180.706-81.318-180.706-180.706s81.318-180.706 180.706-180.706 180.706 81.318 180.706 180.706-81.318 180.706-180.706 180.706zM512 344.847c-66.259 0-120.471 54.212-120.471 120.471s54.212 120.471 120.471 120.471 120.471-54.212 120.471-120.471-54.212-120.471-120.471-120.471zM512 856.847c-216.847 0-391.529-174.682-391.529-391.529 0-349.365 391.529-572.235 391.529-572.235s391.529 222.871 391.529 572.235c0 216.847-174.682 391.529-391.529 391.529zM512-34.635c-87.341 57.224-331.294 243.953-331.294 499.953 0 183.718 147.576 331.294 331.294 331.294s331.294-147.576 331.294-331.294c0-256-243.953-442.729-331.294-499.953z"  horiz-adv-x="1024" />

    
    <glyph glyph-name="wancheng" unicode="&#58924;" d="M874.195275 746.187649c-199.686566 199.749802-524.688222 199.749802-724.374788 0-199.749802-199.686566-199.749802-524.688222 0-724.374788 199.686566-199.749802 524.688222-199.749802 724.374788 0 199.751842 199.684526 199.751842 524.688222 0 724.374788z m-51.969667-672.405121c-171.077445-171.077445-449.421245-171.014209-620.435454 0-171.077445 171.077445-171.077445 449.358009 0 620.435454 171.014209 171.014209 449.421245 171.077445 620.435454 0 171.077445-171.014209 171.077445-449.423285 0-620.435454z m-8.767344 494.031075c-13.695661 12.863395-37.376465 12.096406-50.241901-1.599255L445.254285 227.706739 275.3926 395.008392c-13.503913 13.312166-36.929735 13.183654-50.305136-0.320259a35.514068 35.514068 0 0 1-10.240127-25.28006c0.063236-9.473138 3.904304-18.368994 10.688898-25.025076l195.20702-192.326729 1.152524-1.087249c0.128512-0.128512 0.320259-0.320259 0.448771-0.383495v-0.063236c2.239773-1.98479 4.671293-3.20055 6.84783-4.41631l4.096051-2.368284a35.153011 35.153011 0 0 1 12.991907-2.43152c4.799805 0 9.407862 0.960777 13.760936 2.817055 1.919514 0.76699 3.20055 1.856278 5.056828 3.072038 1.664531 0.960777 3.967539 2.305049 6.08084 4.287798L815.057519 517.571703a34.920467 34.920467 0 0 1 9.664885 25.345335c-0.320259 9.471098-4.353074 18.303718-11.26414 24.896565z"  horiz-adv-x="1028" />

    
    <glyph glyph-name="radiobox-blank" unicode="&#59498;" d="M512 42.666667a341.333333 341.333333 0 0 0-341.333333 341.333333 341.333333 341.333333 0 0 0 341.333333 341.333333 341.333333 341.333333 0 0 0 341.333333-341.333333 341.333333 341.333333 0 0 0-341.333333-341.333333m0 768A426.666667 426.666667 0 0 1 85.333333 384a426.666667 426.666667 0 0 1 426.666667-426.666667 426.666667 426.666667 0 0 1 426.666667 426.666667A426.666667 426.666667 0 0 1 512 810.666667z"  horiz-adv-x="1024" />

    
    <glyph glyph-name="ditu" unicode="&#58903;" d="M515.2 557c-44.8 0-81-36.3-81-81 0-44.8 36.3-81 81-81s81 36.3 81 81-36.3 81-81 81z m0 243.1c-179 0-324.1-145.1-324.1-324.1 0-135.5 270.2-540.5 324.1-540.2 53-0.3 324.1 406.5 324.1 540.2 0 179-145.1 324.1-324.1 324.1z m0-459.2c-74.6 0-135.1 60.5-135.1 135.1s60.5 135.1 135.1 135.1S650.3 550.6 650.3 476c-0.1-74.6-60.5-135.1-135.1-135.1z"  horiz-adv-x="1024" />

    
    <glyph glyph-name="more2" unicode="&#59209;" d="M333.251432 807.839101l415.421384-369.273345c15.446807-13.734816 19.883863-35.975353 12.68081-54.639434 7.121188-18.639522 2.657526-40.780799-12.762675-54.486962l-415.394778-369.289717c-19.117406-16.991999-47.545876-14.458293-63.458287 5.655813-15.940041 20.1182-13.365402 50.202379 5.750981 67.210751l394.880559 351.017562-394.797672 350.950024c-19.117406 17.008372-21.718651 47.095621-5.77861 67.210751 15.941064 20.119223 44.341904 22.649859 63.458288 5.644557z"  horiz-adv-x="1024" />

    
    <glyph glyph-name="icon" unicode="&#58880;" d="M163.264 810.956c-8.499 5.918-16.971 11.881-21.644 15.15 15.125 15.599 36.967 29.825 34.868 37.515-6.133 22.42-29.262 11.172-45.981 12.042-1.114 0.054-2.235-0.205-3.351-0.288-80.032-6.413-147.014-44.886-210.861-88.863-23.59-16.245-43.85-38.258-62.695-60.181-17.535-20.413-12.817-33.649 12.821-36.18 21.561-2.147 21.25-12.463 21.211-28.994-0.142-69.655 30.668-122.606 91.089-157.050 56.69-32.313 114.562-34.799 172.389-1.934 121.44 69.035 127.7 228.403 12.15 308.791zM-67.499 702.53c-2.815 17.199 19.487 39.867 37.17 39.738 18.002-0.125 34.547-17.684 35.142-37.287 0.699-22.797-11.635-35.819-33.713-35.911-22.719-0.098-35.164 12.462-38.601 33.463zM-4.077 537.476c-25.287-0.125-51.986 26.848-51.541 52.114 0.484 28.773 22.688 48.3 53.777 47.315 29.369-0.925 46.347-19.553 45.893-50.359-0.406-29.162-19.799-48.928-48.13-49.065zM130.886 575.43c-43.898-0.211-80.978 36.484-81.509 80.681-0.57 46.365 35.687 87.312 80.058 86.147 50.083-1.322 81.969-33.553 85.258-86.192 2.319-37.078-41.554-82.909-83.802-80.635zM955.356 409.821c-4.857-3.287-14.611-3.437-20.24-0.881-42.221 19.122-58.826 15.815-90.336-21.215h147.698c0.56 3.121 1.122 6.261 1.678 9.397-9.301 13.472-18.037 26.816-38.804 12.7zM497.357 292.317c-76.009-1.227-128.141-33.457-170.21-82.57-8.96-10.442-7.476-29.805-10.81-45.055 13.538 2.492 27.476 3.673 40.523 7.713 39.257 12.178 77.346 30.988 117.44 36.998 53.261 7.97 103.123-11.171 149.508-38.398 8.063-4.747 19.325-4.059 29.113-5.867-1.516 10.401 0.236 22.992-5.061 30.878-37.861 56.487-86.998 95.502-150.503 96.301zM1418.929 1072.084c0 13.471 0 26.975-0.796 40.402-5.328 90.199-90.619 170.79-180.963 170.834-240.347 0.105-1206.261-0.386-1448.865-0.602-99.092-0.085-184.517-86.965-183.402-185.59 0.406-35.924 0.816-71.871 0.804-107.792-0.161-334.658 2.524-669.342-2.225-1003.94-1.741-121.588 105.134-200.932 203.641-200.932 38.887 0 78.528 0.451 117.849 0.346 14.978-0.042 26.364-1.076 22.241-22.625-5.813-30.293-9.371-61.186-11.461-92.003-2.311-34.009 17.5-58.486 38.663-82.719 10.981-12.592 18.285-28.854 25.225-44.345 3.989-8.94 1.312-21.382 6.382-29.114 5.219-7.953 16.007-15.962 24.795-16.501 5.737-0.325 18.449 13.646 17.471 19.442-6.915 41.321 15.588 56.143 50.661 62.673 7.434 1.399 14.234 6.491 21.165 10.183 82.255 43.811 147.93 107.946 213.46 172.575 10.849 10.72 28.048 20.628 42.609 21.041 79.679 2.277 159.474 2.446 239.168 0.834 14.82-0.304 31.917-9.027 43.617-18.973 42.65-36.226 82.215-76.125 125.284-111.811 44.047-36.502 91.884-68.242 147.175-85.639 41.921-13.213 41.563-12.139 38.61-56.317-0.546-8.185 4.747-20.816 11.191-24.299 7.202-3.891 22.708-3.328 27.459 1.849 6.444 7.027 6.362 20.218 8.597 30.877 4.315 20.519 1.405 47.678 13.619 60.546 49.738 52.405 50.233 112.325 34.681 175.349-6.358 25.783 2.768 28.617 24.461 28.617 45.522 0 88.054-0.298 134.639-0.298 104.973 0 197.001 95.955 195.84 199.708-4.045 362.702-1.554 725.486-1.599 1088.24zM144.474-343.598c-23.462-17.856-52.169-30.535-80.335-40.16-45.605-15.599-81.582 10.724-85.835 58.998-0.579 6.66-0.085 13.427-0.085 20.132 0.354 60.353 33.007 105.495 71.85 146.554 48.598 51.395 110.555 83.817 174.964 109.515 57.893 23.116 118.399 39.766 178.021 58.418 9.127 2.858 19.851 2.214 29.629 1.159 19.31-2.082 25.203-13.77 16.944-30.747-9.775-20.085-18.672-41.338-32.261-58.722-78.765-100.765-171.348-187.888-272.89-265.15zM413.606-154.268c30.571 45.638 56.549 84.417 82.997 123.866 27.489-40.049 53.685-78.209 85.019-123.866h-168.012zM1023.454-353.246c-15.714-34.675-45.602-46.171-82.451-34.292-58.914 18.995-106.934 55.326-151.744 95.7-56.474 50.898-112.511 102.544-165.127 157.337-29.095 30.293-53.264 66.153-75.133 102.23-18.179 29.97-5.204 46.58 30.828 48.235 40.954-11.002 82.421-20.368 122.747-33.322 68.282-21.961 135.328-47.806 194.608-89.123 55.618-38.761 104.194-84.377 125.41-151.966 9.887-31.475 15.226-63.063 0.861-94.795zM1362.736-16.755c-0.096-62.546-26.911-108.825-86.801-129.906-23.636-8.335-50.601-9.495-76.093-9.756-54.66-0.539-109.403 0.687-164.021 3.397-12.967 0.644-28.558 6.81-37.774 15.77-110.565 107.338-248.079 157.637-395.142 186.41-32.293 6.317-67.359 7.562-95.602-19.206-3.936-3.74-18.565-2.493-23.205 1.827-26.578 24.855-59.668 23.869-89.338 17.1-137.713-31.477-271.159-74.833-371.411-181.618-29.679-31.628-61.771-26.054-94.32-26.054-46.868 0-85.776 0.739-132.598 0.739-68.499 0-133.945 58.098-134.049 135.298-0.277 185.273-0.085 370.541-0.085 555.815-0.062 0 1.506 370.478-1.009 555.68-0.976 71.658 62.559 134.481 126.123 134.481 64.375 0 1398.338-0.066 1443.138-0.783 77.434-1.258 132.051-55.563 132.397-134.257 0.855-195.398 0.081-932.043-0.206-1104.94zM29.371 426.094c-7.821-2.138-13.942-10.497-20.838-15.996 7.532-3.026 15.22-8.94 22.58-8.541 24.299 1.299 48.471 4.885 72.705 7.595 0.066-0.599 0.127-1.201 0.206-1.81 3.34-0.193 6.722-0.87 9.988-0.481 7.562 0.89 15.063 2.294 22.595 3.488-6.758 4.87-13.513 9.743-20.26 14.622-28.659 20.622-58.151 9.041-86.976 1.126zM1099.242 761.006c-52.379 45.294-113.268 75.866-178.978 95.050-37.211 10.87-76.787 14.451-115.593 18.491-8.789 0.912-18.811-9.897-28.277-15.309 8.412-6.93 15.858-16.091 25.461-20.218 12.502-5.347 26.724-6.685 40.196-9.756 0-3.051 0-6.098 0-9.152-9.969-6.959-19.833-14.073-29.907-20.861-70.518-47.516-99.727-143.542-66.682-219.389 44.122-101.263 135.521-138.133 234.849-103.499 84.806 29.584 127.989 92.713 118.882 194.145-1.25 13.984-2.623 22.218 14.762 26.754 25.263 6.598 27.555 16.706 11.203 37.618-7.511 9.597-16.66 18.107-25.923 26.122zM780.385 694.527c0.912 17.090 21.024 36.416 38.234 36.74 20.885 0.386 38.245-17.081 38.234-38.461 0-22.798-14.985-37.311-38.49-37.278-19.228 0.020-38.978 20.3-37.979 38.995zM843.596 521.65c-25.105 0.386-48.203 26.731-48.159 54.941 0.042 27.395 24.727 51.52 51.808 50.642 24.475-0.783 47.69-25.718 47.84-51.372 0.182-30.683-22.58-54.628-51.492-54.21zM976.262 562.971c-41.554 1.279-76.876 41.683-75.843 86.74 1.053 45.483 43.165 85.084 88.455 83.195 40.982-1.716 80.572-45.812 79.808-88.885-0.853-47.951-40.416-82.649-92.421-81.047z"  horiz-adv-x="1024" />

    
    <glyph glyph-name="shenhezhong" unicode="&#58881;" d="M512 896C228.937143 896 0 667.062857 0 384s228.937143-512 512-512 512 228.937143 512 512S795.062857 896 512 896z m453.485714-512c0-250.148571-203.337143-453.485714-453.485714-453.485714S58.514286 133.851429 58.514286 384 261.851429 837.485714 512 837.485714s453.485714-203.337143 453.485714-453.485714zM446.171429 669.257143c0 16.091429 13.165714 29.257143 29.257142 29.257143s29.257143-13.165714 29.257143-29.257143v-365.714286h-58.514285V669.257143zM687.542857 362.057143c16.091429 0 29.257143-13.165714 29.257143-29.257143s-13.165714-29.257143-29.257143-29.257143H446.171429v58.514286h241.371428z"  horiz-adv-x="1024" />

    
    <glyph glyph-name="zanwushuju" unicode="&#59096;" d="M449.024 598.016c0 8.704-7.168 15.872-15.872 15.872-8.704 0-15.872-7.168-15.872-15.872 0-34.816-28.16-62.976-62.976-62.976-34.816 0-62.976 28.16-62.976 62.976 0 8.704-7.168 15.872-15.872 15.872-8.704 0-15.872-7.168-15.872-15.872 0-52.224 42.496-94.72 94.72-94.72 52.224 0.512 94.72 42.496 94.72 94.72zM748.544 613.888c-8.704 0-15.872-7.168-15.872-15.872 0-34.816-28.16-62.976-62.976-62.976-34.816 0-62.976 28.16-62.976 62.976 0 8.704-7.168 15.872-15.872 15.872-8.704 0-15.872-7.168-15.872-15.872 0-52.224 42.496-94.72 94.72-94.72s94.72 42.496 94.72 94.72c-0.512 8.704-7.168 15.872-15.872 15.872zM625.152 296.448c-32.768 21.504-70.656 34.304-113.152 34.304s-80.384-12.8-113.152-34.304c-19.456-12.8-33.28-25.6-40.448-34.816-5.632-6.656-4.608-16.896 2.048-22.016 6.656-5.632 16.896-4.608 22.016 2.048 1.024 1.536 4.096 4.608 8.192 8.192 7.168 6.656 15.872 13.312 25.6 19.968 27.648 17.92 59.904 29.184 96.256 29.184 36.352 0 68.096-10.752 96.256-29.184 9.728-6.144 18.432-13.312 25.6-19.968l8.192-8.192c5.632-6.656 15.36-7.68 22.016-2.048 6.656 5.632 7.68 15.36 2.048 22.016-8.192 8.704-21.504 22.016-41.472 34.816zM948.736 818.688H75.264c-34.816 0-63.488-28.16-63.488-63.488v-601.088c0-34.816 28.16-63.488 63.488-63.488H122.88c3.072-8.704 8.192-17.92 15.872-26.112 2.048-2.048 4.608-3.584 7.168-4.096 79.36-20.48 98.816-46.08 103.424-59.392 5.12-14.848-3.584-26.624-4.096-27.648-5.12-6.656-4.096-15.872 2.56-20.992 6.656-5.12 15.872-4.096 21.504 2.56 7.168 9.216 16.896 30.72 9.216 55.296-11.264 33.28-51.712 59.904-120.32 78.336-5.632 6.656-7.168 12.288-7.168 16.896 0 6.144 4.096 12.288 10.752 17.408l0.512 0.512c2.048 1.536 4.096 3.072 6.656 4.096 0.512 0.512 1.024 0.512 1.536 1.024 3.072 1.536 6.144 2.56 9.728 3.584 5.12 1.024 14.848 3.072 29.696 3.072 26.624 0 57.344-5.12 92.16-15.36 5.632-2.56 11.264-5.12 17.408-8.192 1.536-1.024 3.584-2.048 5.12-3.072 7.168-4.096 14.848-8.704 22.016-13.824 0.512-0.512 1.024-0.512 2.048-1.024 115.712-81.408 102.912-122.368 102.912-122.368-4.096-7.168-1.024-16.384 6.144-20.48 2.048-1.024 4.608-1.536 7.168-1.536 5.632 0 10.752 3.072 13.312 8.192 4.608 9.216 20.48 54.272-75.264 133.12H670.72c-96.256-78.848-80.384-124.416-75.776-133.12 2.56-5.12 8.192-8.192 13.824-8.192 2.048 0 4.608 0.512 6.656 1.536 7.168 4.096 10.24 12.8 6.656 19.968 0 0.512-13.824 41.472 102.912 123.392 8.192 5.632 16.384 10.752 24.064 14.848 1.536 1.024 3.072 1.536 4.608 2.56 6.144 3.072 12.288 6.144 17.92 8.704 34.304 10.24 65.024 15.36 91.648 15.36 15.36 0 24.576-1.536 29.696-3.072 3.584-1.024 6.656-2.56 9.728-3.584 0.512-0.512 1.024-0.512 1.536-1.024 2.56-1.536 5.12-3.072 7.168-4.608h0.512c7.168-5.12 10.752-11.264 10.752-17.408 0-4.608-2.048-10.24-7.68-16.896-68.608-18.432-109.056-44.544-120.32-78.336-8.192-24.576 1.536-46.08 9.216-55.296 5.12-6.656 14.848-7.68 21.504-2.56 6.656 5.12 7.68 14.848 2.56 21.504 0 0-9.216 11.776-4.096 27.136 4.608 13.312 24.064 38.912 103.424 59.904 2.56 0.512 5.12 2.048 7.168 4.096 8.192 8.192 13.312 16.896 15.872 26.112 34.304 0.512 61.952 28.672 61.952 62.976V755.2c0 34.816-28.672 63.488-63.488 63.488z m1.536-697.344c-2.048 5.632-5.12 11.264-9.728 16.896l-2.048 2.048c0 0.512-0.512 0.512-0.512 0.512-2.048 2.048-4.608 4.608-7.68 6.656-1.024 0.512-1.536 1.536-2.56 2.048-2.048 1.536-4.608 3.072-7.168 4.096-1.024 0.512-2.048 1.536-3.072 2.048-0.512 0-0.512 0.512-1.024 0.512-10.24 4.608-17.408 7.68-33.792 10.752-1.024 0-2.048 0.512-3.584 0.512-1.024 0-2.048 0-3.072 0.512-6.144 1.024-12.8 1.536-19.968 1.536h-2.56c-25.088 0-53.76-5.12-83.968-16.896-9.216-3.584-17.408-7.68-27.648-12.8-10.24-5.12-20.48-11.264-30.72-18.432H362.496l-3.072 1.536c-8.192 5.632-16.384 10.752-24.576 14.848l-3.072 1.536c-7.68 4.608-20.48 9.728-27.648 12.8-1.536 0.512-2.56 1.024-4.096 1.536-17.92 6.656-35.328 11.264-52.224 13.312-1.536 0-3.072 0.512-4.096 0.512-7.68 1.024-15.36 1.536-22.528 1.536h-4.608c-6.144 0-11.776-0.512-17.408-1.024-1.536 0-3.072-0.512-4.608-0.512-1.024 0-2.048-0.512-3.584-0.512-12.288-2.048-25.6-6.144-33.792-10.752-0.512 0-1.024-0.512-1.024-0.512-1.024-0.512-2.048-1.536-3.072-2.048-2.048-1.536-4.608-2.56-6.656-4.096-1.024-0.512-2.048-1.536-3.072-2.048-2.56-2.048-5.12-4.096-7.168-6.144l-1.024-1.024c-0.512-0.512-1.536-1.024-2.048-2.048-2.048-2.048-3.072-4.608-4.608-6.656-2.048-3.072-3.584-6.656-5.12-9.728h-47.616c-18.432 0-32.768 14.848-32.768 32.768V755.2c0 17.92 14.848 32.768 32.768 32.768h873.472c17.92 0 32.768-14.848 32.768-32.768v-601.088c-0.512-17.408-14.336-32.256-31.744-32.768z"  horiz-adv-x="1024" />

    
    <glyph glyph-name="zanwushuju1" unicode="&#59091;" d="M523.377778 636.207407c0 9.481481-7.585185 18.962963-18.962963 18.962963s-18.962963-7.585185-18.962963-18.962963c0-41.718519-34.133333-73.955556-75.851852-73.955555s-75.851852 32.237037-75.851852 73.955555c0 9.481481-7.585185 18.962963-18.962963 18.962963-9.481481 0-18.962963-7.585185-18.962963-18.962963 0-60.681481 51.2-111.881481 111.881482-111.881481 64.474074 1.896296 115.674074 51.2 115.674074 111.881481zM733.866667 283.496296c-39.822222 24.651852-83.437037 39.822222-134.637037 39.822223s-94.814815-15.17037-134.637037-39.822223c-24.651852-15.17037-39.822222-30.340741-49.303704-41.718518-7.585185-7.585185-5.688889-18.962963 1.896296-26.548148s18.962963-5.688889 26.548148 1.896296l9.481482 9.481481c7.585185 7.585185 18.962963 17.066667 30.340741 22.755556 34.133333 20.859259 72.059259 34.133333 113.777777 34.133333s81.540741-13.274074 113.777778-34.133333c11.377778-7.585185 22.755556-15.17037 30.340741-22.755556 5.688889-3.792593 7.585185-7.585185 9.481481-9.481481 5.688889-7.585185 18.962963-9.481481 26.548148-1.896296 7.585185 5.688889 9.481481 18.962963 1.896297 26.548148-5.688889 11.377778-22.755556 26.548148-45.511111 41.718518zM879.881481 655.17037c-9.481481 0-18.962963-7.585185-18.962962-18.962963 0-41.718519-34.133333-73.955556-75.851852-73.955555s-75.851852 32.237037-75.851852 73.955555c0 9.481481-7.585185 18.962963-18.962963 18.962963s-18.962963-7.585185-18.962963-18.962963c0-60.681481 51.2-109.985185 111.881481-111.881481 62.577778 0 111.881481 49.303704 111.881482 111.881481 3.792593 11.377778-3.792593 18.962963-15.170371 18.962963zM1118.814815 896h-1039.170371c-41.718519 0-75.851852-34.133333-75.851851-73.955556V116.622222c0-39.822222 32.237037-73.955556 73.955555-73.955555 3.792593-11.377778 9.481481-20.859259 18.962963-30.340741 1.896296-1.896296 5.688889-3.792593 7.585185-5.688889 94.814815-24.651852 117.57037-54.992593 123.25926-70.162963 5.688889-18.962963-5.688889-32.237037-5.688889-32.237037-5.688889-7.585185-5.688889-18.962963 3.792592-24.651852s18.962963-5.688889 24.651852 3.792593c9.481481 11.377778 20.859259 36.02963 11.377778 64.474074-13.274074 39.822222-60.681481 70.162963-144.118519 92.918518-7.585185 7.585185-9.481481 15.17037-9.481481 18.962963 0 7.585185 3.792593 15.17037 13.274074 20.85926 1.896296 1.896296 5.688889 3.792593 7.585185 5.688888 0 0 1.896296 0 1.896296 1.896297 3.792593 1.896296 7.585185 3.792593 11.377778 3.792592 5.688889 1.896296 17.066667 3.792593 36.02963 3.792593 32.237037 0 68.266667-5.688889 109.985185-18.962963 7.585185-3.792593 13.274074-5.688889 20.859259-9.481481 1.896296-1.896296 3.792593-1.896296 5.688889-3.792593l28.444445-17.066667c138.42963-96.711111 123.259259-144.118519 123.259259-144.118518-3.792593-7.585185 0-18.962963 7.585185-22.755556 1.896296-1.896296 5.688889-1.896296 7.585185-1.896296 7.585185 0 13.274074 3.792593 17.066667 9.481481 5.688889 9.481481 24.651852 64.474074-91.022222 155.496297h318.577777c-113.777778-92.918519-94.814815-146.014815-89.125925-155.496297 3.792593-5.688889 9.481481-9.481481 15.17037-9.481481 3.792593 0 5.688889 0 7.585185 1.896296 7.585185 5.688889 11.377778 15.17037 7.585185 24.651852 0 0-15.17037 47.407407 123.25926 144.118519 1.896296 0 1.896296 0 1.896296 1.896296 7.585185 5.688889 17.066667 11.377778 26.548148 17.066667 1.896296 1.896296 3.792593 1.896296 5.688889 3.792592 7.585185 3.792593 13.274074 5.688889 20.859259 9.481482 41.718519 11.377778 77.748148 18.962963 109.985185 18.962963 17.066667 0 28.444444-1.896296 36.02963-3.792593 3.792593-1.896296 7.585185-1.896296 11.377778-3.792593 0 0 1.896296 0 1.896296-1.896296 3.792593-1.896296 5.688889-3.792593 7.585185-5.688889 7.585185-5.688889 13.274074-13.274074 13.274074-20.859259 0-5.688889-1.896296-11.377778-7.585185-18.962963-81.540741-20.859259-128.948148-53.096296-144.118518-92.918519-9.481481-28.444444 1.896296-54.992593 11.377777-64.474074 7.585185-7.585185 17.066667-9.481481 24.651852-3.792592s9.481481 17.066667 3.792593 24.651852c0 1.896296-11.377778 15.17037-5.688889 32.237037 5.688889 15.17037 28.444444 45.511111 123.259259 70.162963 3.792593 0 5.688889 1.896296 7.585185 5.688889 9.481481 9.481481 15.17037 20.859259 18.962963 30.34074h56.888889c41.718519 0 75.851852 34.133333 75.851852 73.955556v705.422222c3.792593 36.02963-30.340741 70.162963-72.059259 70.162963z m37.925926-779.377778c0-20.859259-17.066667-37.925926-39.822222-37.925926h-56.888889l-5.688889 11.377778c-1.896296 1.896296-3.792593 5.688889-5.688889 7.585185 0 1.896296-1.896296 1.896296-1.896296 1.896297l-1.896297 1.896296-7.585185 7.585185c-1.896296 0-1.896296 1.896296-3.792593 1.896296-1.896296 1.896296-5.688889 3.792593-7.585185 5.688889-1.896296 0-1.896296 1.896296-3.792592 1.896297h-1.896297c-9.481481 5.688889-24.651852 9.481481-39.822222 13.274074h-9.481481c-7.585185 0-13.274074 1.896296-20.85926 1.896296h-5.688888c-7.585185 0-17.066667 0-26.548149-1.896296h-5.688888c-20.859259-1.896296-41.718519-7.585185-62.577778-15.170371-1.896296 0-3.792593-1.896296-5.688889-1.896296-7.585185-3.792593-24.651852-9.481481-32.237037-15.17037l-3.792593-1.896297-28.444444-17.066666-3.792593-1.896297H360.296296c-11.377778 7.585185-24.651852 15.17037-36.029629 20.85926-11.377778 5.688889-22.755556 11.377778-32.237037 15.17037-36.02963 13.274074-70.162963 18.962963-100.503704 18.962963h-3.792593c-7.585185 0-17.066667 0-24.651852-1.896296h-7.585185c-18.962963-3.792593-28.444444-7.585185-39.822222-13.274074h-1.896296c-1.896296 0-1.896296-1.896296-3.792593-1.896297-3.792593-1.896296-5.688889-3.792593-7.585185-5.688889-1.896296 0-1.896296-1.896296-3.792593-1.896296-3.792593-1.896296-7.585185-5.688889-9.481481-7.585185l-1.896296-1.896296c-5.688889-5.688889-9.481481-13.274074-11.377778-18.962963-20.859259 0-37.925926 18.962963-37.925926 37.925926v705.422222c0 20.859259 17.066667 37.925926 39.822222 37.925926h1039.170371c20.859259 0 39.822222-17.066667 39.822222-37.925926V116.622222z"  horiz-adv-x="1194" />

    
    <glyph glyph-name="shanchu" unicode="&#58883;" d="M731.918024 715.466274L293.285433 715.466274c-40.383364 0-73.105944-32.720216-73.105944-73.102948l0-24.367991 584.843455 0 0 24.367991C805.023968 682.746058 772.302411 715.466274 731.918024 715.466274M604.221575 764.201232l10.756412-76.909647L410.22547 687.2915840000001l10.755389 76.909647L604.221575 764.201232M610.076149 812.936189l-194.947818 0c-20.108791 0-38.813548-16.276708-41.621615-36.217876l-14.254216-101.968369c-2.78453-19.916609 11.399075-36.19434 31.507865-36.19434l243.684773 0c20.107767 0 34.292396 16.276708 31.484328 36.217876l-14.255239 101.968369C648.887651 796.659481 630.183917 812.936189 610.076149 812.936189M744.102007 569.261401L281.100427 569.261401c-26.795347 0-46.761893-21.845541-44.334511-48.544623L276.699007 81.72148900000002c2.402821-26.700105 26.344051-48.544623 53.139398-48.544623l365.527671 0c26.795347 0 50.735553 21.845541 53.139398 48.544623l39.932067 438.995289C790.8639 547.4158600000001 770.897354 569.261401 744.102007 569.261401M415.128331 130.64678100000003l-73.105944 0-24.368989 341.144704 97.473909 0L415.127308 130.64678100000003zM561.339195 130.64678100000003l-97.473909 0L463.865286 471.791485l97.473909 0L561.339195 130.64678100000003zM683.18107 130.64678100000003l-73.105944 0L610.075126 471.791485l97.473909 0L683.18107 130.64678100000003z"  horiz-adv-x="1024" />

    
    <glyph glyph-name="chuyidong1-copy" unicode="&#58887;" d="M512 431.734154L337.053538 606.72a33.752615 33.752615 0 1 1-47.734153-47.734154L464.226462 384l-174.985847-174.946462a33.752615 33.752615 0 1 1 47.734154-47.734153L512 336.22646199999997l174.946462-174.985847a33.752615 33.752615 0 1 1 47.734153 47.734154L559.773538 384l174.985847 174.946462a33.752615 33.752615 0 1 1-47.734154 47.734153L512 431.773538z"  horiz-adv-x="1024" />

    
    <glyph glyph-name="empty" unicode="&#58882;" d="M173.376694 686.397751V732.248593c0 21.831602 15.286279 43.664803 37.117881 45.850842l8.73296 2.179642V819.582997c0 28.378524 24.017641 52.397764 52.402562 52.397763v2.186039h264.184452c28.384921 0 52.40416-24.01924 52.40416-52.40416v-37.117882h371.170815c28.384921 0 52.40416-24.017641 52.404161-52.396164v-45.850842h19.65196V730.062554c0 41.483562-32.750601 74.235762-74.235763 74.235763H607.870669V821.762639c0 41.485161-32.750601 74.235762-74.235763 74.235762h-262.004809c-41.483562 0-74.234163-32.750601-74.234164-74.235762v-21.831602c-28.384921-10.918999-48.03848-37.117881-48.038479-67.682444v-45.850842h24.01924zM1184.276453-82.150757c0-6.551719-6.546922-13.105038-13.098641-13.105038h-69.868483c-6.546922 0-13.098641 6.554918-13.098641 13.105038 0 6.546922 6.553319 13.10024 13.098641 13.10024h69.868483c6.553319 0 13.098641-6.553319 13.098641-13.10024z m0 0M88.228329 789.012037c-6.553319 0-13.10024 6.553319-13.100241 13.098642V871.98076c0 6.551719 6.546922 13.098641 13.100241 13.098642 6.546922 0 13.098641-6.546922 13.098641-13.098642V802.110679c-2.186039-6.545323-6.551719-13.098641-13.098641-13.098642z m0 0M134.07917 837.048918c0-6.553319-6.553319-13.098641-13.10024-13.098642H53.29009c-6.546922 0-13.098641 6.545323-13.098642 13.098642 0 6.546922 6.551719 13.098641 13.098642 13.098641h69.870081c6.551719 0 10.918999-6.551719 10.918999-13.098641z m0 0M1212.661374 647.093831c-6.546922 0-10.912603 4.365681-10.912603 10.919v43.664803c0 6.551719 4.365681 10.918999 10.912603 10.918999 6.553319 0 10.918999-4.36728 10.918999-10.918999v-43.664803c-2.186039-6.553319-6.551719-10.918999-10.918999-10.919z m0-93.881325c-6.546922 0-10.912603 4.365681-10.912603 10.912603v43.671199c0 6.545323 4.365681 10.912603 10.912603 10.912603 6.553319 0 10.918999-4.36728 10.918999-10.912603v-43.671199c-2.186039-6.546922-6.551719-10.912603-10.918999-10.912603z m-15.278284 78.595046c0-6.545323-4.365681-10.912603-10.918999-10.912602h-43.6712c-6.546922 0-10.912603 4.36728-10.912602 10.912602 0 6.553319 4.365681 10.918999 10.912602 10.919h43.6712c6.551719 0 10.918999-6.551719 10.918999-10.919z m93.881326 0c0-6.545323-4.365681-10.912603-10.912603-10.912602h-43.6712c-6.553319 0-10.918999 4.36728-10.918999 10.912602 0 6.553319 4.365681 10.918999 10.918999 10.919h43.6712c4.365681 0 10.912603-6.551719 10.912603-10.919z m0 0M116.613249 199.49961599999995L77.309329 269.369697 7.439248 308.675216l69.870081 39.295924 39.30392 69.868483 39.297523-69.868483 69.870082-39.295924-69.870082-39.305519-39.297523-69.870081z m-63.323159 109.1756l41.485161-21.837998 21.837998-41.485161 21.831602 41.485161 41.485161 21.837998-41.485161 21.830003-21.831602 41.485161-21.837998-41.485161-41.485161-21.830003z m0 0M116.613249 199.49961599999995L77.309329 269.369697 7.439248 308.675216l69.870081 39.295924 39.30392 69.868483 39.297523-69.868483 69.870082-39.295924-69.870082-39.305519-39.297523-69.870081z m-63.323159 109.1756l41.485161-21.837998 21.837998-41.485161 21.831602 41.485161 41.485161 21.837998-41.485161 21.830003-21.831602 41.485161-21.837998-41.485161-41.485161-21.830003z m0 0M1096.94205 795.565356l4.36568 8.732961 6.553319-8.732961 8.73296-6.553319-8.73296-4.36728-6.553319-10.912602-4.36568 10.912602-10.912603 4.36728 10.912603 6.553319z m0 0M1101.309329 751.8941560000001l-13.098641 24.01924-24.012843 13.098641 24.012843 15.28628 13.098641 24.01764 13.105038-24.01764 26.198882-15.28628-26.198882-13.098641-13.105038-24.01924z m0 0M363.33178 498.622307l0 0z m0 0M389.530662 461.504426c-19.65196 0-37.117881 17.472318-37.117881 37.117881 0 19.65196 17.465921 37.117881 37.117881 37.117881s37.117881-17.465921 37.117881-37.117881c0-19.645563-17.465921-37.117881-37.117881-37.117881z m0 52.40416c-8.732961 0-15.279883-6.553319-15.279883-15.286279s6.546922-15.279883 15.279883-15.279883 15.286279 6.546922 15.286279 15.279883-6.553319 15.286279-15.286279 15.286279z m0 0M793.453678 461.504426c-19.645563 0-37.117881 17.472318-37.117881 37.117881 0 19.65196 17.472318 37.117881 37.117881 37.117881 19.65196 0 37.117881-17.465921 37.117881-37.117881 0-19.645563-15.279883-37.117881-37.117881-37.117881z m0 52.40416c-8.732961 0-15.279883-6.553319-15.279883-15.286279s6.546922-15.279883 15.279883-15.279883 15.286279 6.546922 15.286279 15.279883-6.553319 15.286279-15.286279 15.286279z m0 0M1037.992566 697.310354H147.177812c-21.831602 0-39.30392-6.546922-52.402561-21.831602-13.10024-15.286279-19.647162-32.7522-17.465922-52.40416l25.575214-253.765987 13.728706 24.514976 8.425924-15.046406-25.898242 246.485054c-2.179642 13.098641 2.186039 26.197283 10.919 34.930244 8.732961 10.918999 19.65196 15.286279 34.931842 15.286279v2.179642h895.186832c13.098641 0 26.198882-4.365681 34.931843-15.279883 8.732961-8.731361 13.098641-21.831602 10.918999-34.936639l-10.453647-99.89733a198.09796 198.09796 0 0 0 21.583734-6.742018l10.701515 102.272068c0 19.65196-4.365681 39.30392-17.465921 52.40416-13.098641 13.098641-32.750601 21.831602-52.402562 21.831602zM1138.427211-31.932636000000002c-6.546922 0-13.098641-6.553319-13.098642-13.10024v-69.866884c0-6.554918 6.553319-13.10024 13.098642-13.10024 6.553319 0 10.918999 4.36728 13.105037 13.10024v69.866884c0 6.548521-6.553319 13.10024-13.105037 13.10024zM763.731867 2.997608000000014h213.129975c34.931842 0 67.682444 26.198882 72.049724 56.769841l8.235625 78.710185a199.287728 199.287728 0 0 0-22.51284-2.150858l-7.555986-72.192048c-2.186039-19.65196-26.205278-37.117881-50.216523-37.117881H773.32677M646.200706 27.01844600000004H208.314933c-26.205278 0-48.03688 17.465921-50.218122 37.117882L137.502952 260.136203l-19.893432-36.946772 16.46965-163.421982c4.365681-30.570959 37.117881-56.769841 72.048125-56.769841H641.403255M1027.079964 125.27025000000003c-56.769841 0-109.174001 21.833201-148.471525 61.132324-39.30392 39.302321-61.135522 91.701683-61.135521 148.471524s21.831602 109.166006 61.135521 148.469925c39.297523 39.299122 91.701683 61.130724 148.471525 61.130725 56.763444 0 109.167605-21.831602 148.465128-61.130725 39.30392-39.30392 61.135522-91.700084 61.135521-148.469925s-21.831602-109.169204-61.135521-148.471524c-39.299122-39.299122-93.882925-61.132323-148.465128-61.132324z m0 399.557335c-50.216522 0-98.253403-19.65196-133.185246-54.583802-34.938239-34.938239-54.590199-82.968723-54.590199-133.185245 0-50.222919 19.65196-98.255002 54.590199-133.191642 34.931842-34.933442 82.968723-54.583802 133.185246-54.583803s98.248605 19.650361 133.185245 54.583803c34.931842 34.93664 54.583802 82.968723 54.583802 133.191642 0 50.216522-19.65196 98.247006-54.583802 133.185245-37.117881 34.931842-82.968723 54.583802-133.185245 54.583802z m0 0M860.186226 238.69959100000005a61.13872 61.13872 0 0 1-18.05121-11.497892L652.533342 45.33831399999997c-27.089609-27.091208-30.959553-67.720823-5.808115-92.872262 23.218065-23.214867 65.784252-21.278296 92.867464 5.806516L921.462473 147.87424199999998a52.383371 52.383371 0 0 1 5.038923 5.865684c-36.041653 18.12637-61.332217 49.037949-66.31517 84.959665zM676.806846-12.712446999999997c-11.427529 0-19.092257 7.816647-19.092257 17.465922 0 9.644476 7.666327 17.46752 19.092257 17.46752s17.493107-7.823044 17.493107-17.46752c0-9.649274-6.067177-17.465921-17.493107-17.465922z m136.298792 137.982697l-93.881326-93.887722c-4.372077-6.551719-15.286279-6.551719-21.837998 0-6.546922 6.553319-6.546922 15.287878 0 21.833201l93.887722 93.887722c6.546922 6.545323 15.286279 6.545323 21.831602 0 6.553319-6.553319 6.553319-15.286279 0-21.833201zM933.192242 444.038505c-2.186039 0-2.186039 0 0 0-6.553319 6.553319-4.365681 15.286279 2.186038 19.651959 63.316763 45.850842 148.465128 39.299122 205.234969-15.28468 4.365681-4.36728 4.365681-13.10024 0-19.645563-4.365681-4.36728-13.098641-4.36728-19.65196 0-45.850842 45.849243-117.900565 50.216522-170.303126 13.098641-6.546922-4.365681-13.10024-4.365681-17.465921 2.179643z m0 0M874.241159 347.97114c-2.186039 2.186039-4.365681 6.554918-4.36568 10.919 2.179642 15.281482 6.546922 30.564563 15.279882 45.850841 2.186039 6.546922 10.918999 8.732961 17.472318 6.546922 6.546922-2.179642 8.732961-10.912603 6.546922-17.465921-6.546922-10.912603-10.912603-24.01924-13.098641-37.117881-2.179642-6.546922-8.732961-13.097042-15.28628-10.911004-2.181241-0.001599-4.36728-0.001599-6.548521 2.178043z m0 0M739.607084 267.46670800000004h-268.657276a7.995752 7.995752 0 1 0 0 15.991505h268.657276c4.416854 0 7.995752-3.578899 7.995752-7.995752s-3.578899-7.995752-7.995752-7.995753z"  horiz-adv-x="1378" />

    
    <glyph glyph-name="sheweimorendizhi" unicode="&#58904;" d="M517.268475 770.5145c218.402245 0 394.656688-176.254443 394.656689-394.656689S735.67072-17.840973 517.268475-17.840973 122.611787 158.413471 122.611787 375.857811 298.86623 770.5145 517.268475 770.5145zM334.3087 424.710945c-35.44247 11.494855-69.927035-3.831618-58.43218-53.642657l168.591207-169.549111c11.494855-8.621141 23.947615-9.579046 35.442469 0 91.95884 94.832554 184.875585 189.665108 276.834425 284.497661 28.737138 43.105706-15.326473 88.127222-59.390084 48.853134L463.625819 304.014967 334.3087 424.710945z"  horiz-adv-x="1043" />

    
    <glyph glyph-name="CombinedShape" unicode="&#58888;" d="M558.510547 430.510547V849.441455a46.526546 46.526546 0 0 1-93.117091 0v-418.930908H46.590544a46.526546 46.526546 0 0 1 0-93.053093h418.930908v-418.930908a46.526546 46.526546 0 0 1 93.053093 0V337.457454h418.930908a46.526546 46.526546 0 1 1 0 93.053093H558.510547z"  horiz-adv-x="1024" />

    
    <glyph glyph-name="Fillgou" unicode="&#58889;" d="M1108.423111 896C762.311111 674.702222 511.203556 395.377778 398.449778 255.317333l-276.48 225.848889L0 378.538667 477.525333-128C559.672889 91.591111 819.996444 520.647111 1137.777778 825.457778L1108.423111 896z"  horiz-adv-x="1137" />

    
    <glyph glyph-name="daipingjia" unicode="&#58890;" d="M1048.624762 699.196952a32.182857 32.182857 0 0 0-10.044952-23.503238l-66.316191-63.049143-160.768 153.502477 65.77981 63.049142a37.449143 37.449143 0 0 0 49.347047 0L1038.628571 722.651429a31.939048 31.939048 0 0 0 10.044953-23.405715zM297.935238 117.955048l8.43581 131.754666 127.658666-121.61219-136.094476-10.093714z m38.716952 185.392762l437.979429 415.451428 148.187429-141.019428-435.736381-418.133334-150.430477 143.701334z m744.984381 459.824761L969.776762 870.15619C953.10019 886.588952 928.426667 896 901.997714 896c-25.063619 0-49.737143-9.167238-68.120381-25.648762l-90.404571-102.15619-485.180952-442.270477-1.657905-1.560381-31.939048-264.484571 13.507048-11.264 270.09219 34.864762 464.554667 463.823238 108.885333 84.065524c36.815238 35.59619 36.815238 97.28-0.048762 131.85219z m-71.68-339.285333c-13.06819 20.772571-45.83619 19.21219-57.929142-2.096762a21.308952 21.308952 0 0 1-3.169524-10.288762l1.560381-406.186666c0-43.154286-35.303619-78.311619-78.701715-78.311619l-680.569904 1.80419c-21.796571 0-46.567619 8.97219-64.707048 23.552-19.992381 15.408762-31.451429 35.547429-31.451429 55.296l1.609143 638.780952c0 20.187429 12.04419 44.958476 32.329143 62.902858 19.504762 17.554286 43.739429 28.086857 64.853334 28.086857h369.127619c17.749333 0 29.647238 19.114667 29.647238 35.206095 0 15.798857-14.287238 32.475429-31.98781 32.475429h-369.127619C104.545524 805.10781 36.571429 741.912381 36.571429 661.113905v-654.384762c0-38.960762 16.091429-73.728 45.299809-98.011429 27.550476-23.698286 66.462476-36.717714 109.568-36.717714h685.348572c41.642667 0 76.604952 12.678095 101.229714 36.571429 23.990857 23.893333 36.717714 57.831619 36.717714 98.157714l-1.560381 407.795809a17.798095 17.798095 0 0 1-3.120762 9.362286z"  horiz-adv-x="1121" />

    
    <glyph glyph-name="daifahuo" unicode="&#58891;" d="M943.696842-58.637474l-729.303579 0.862316c-71.302737 0-132.042105 59.338105-132.042105 130.15579V485.861053l323.907368-0.916211V238.484211c0-13.042526 14.389895-23.605895 32.175158-23.605895 13.258105 0 24.576 5.820632 29.534316 14.174316l111.023158 65.374315 111.023158-65.320421c4.904421-8.353684 16.276211-14.228211 29.480421-14.22821 17.785263 0 32.175158 10.563368 32.175158 23.605895V484.944842l323.745684 0.10779v-413.480421c0-70.817684-60.416-130.209684-131.772632-130.209685zM213.045895 821.463579h192.40421v-273.51579H82.297263v143.898948a130.425263 130.425263 0 0 0 130.748632 129.670737z m478.800842-526.874947l-109.406316 62.625684a4.850526 4.850526 0 0 1-3.018105 0.538947 5.227789 5.227789 0 0 1-3.772632-0.431158l-108.274526-60.362105V821.409684l224.471579-2.371368v-524.39579z m383.514947 397.312v-143.898948l-320.673684-0.053895V821.517474h192.296421c72.111158 0 128.377263-58.098526 128.377263-129.616842z m60.954948-174.565053V703.595789a180.870737 180.870737 0 0 1-181.086316 180.224h-234.064842a42.199579 42.199579 0 0 1-3.395369 0H440.158316a42.199579 42.199579 0 0 1-3.395369 0H202.590316A180.816842 180.816842 0 0 1 21.665684 703.595789v-643.557052a180.870737 180.870737 0 0 1 180.924632-180.33179h752.747789a180.924632 180.924632 0 0 1 181.032421 180.33179V515.664842v1.670737z"  horiz-adv-x="1185" />

    
    <glyph glyph-name="daifukuan" unicode="&#58892;" d="M854.0672 446.5664c-32.1024 0-58.2144-26.9824-58.2144-60.16 0-33.2288 26.112-60.2112 58.2144-60.2112s58.2144 26.9824 58.2144 60.2112c0 33.1776-26.112 60.16-58.2144 60.16M720.2816 386.4064c0 60.6208 47.7696 109.9264 106.4448 109.9264h215.8592V276.48h-215.8592c-58.6752 0-106.4448 49.3568-106.4448 109.9776z m322.304-178.4832v-145.4592c0-60.672-47.5648-109.9776-105.984-109.9776H168.3968c-58.4704 0-105.984 49.3056-105.984 109.9776V710.3488c0 60.6208 47.5136 109.9264 105.984 109.9264h768.2048c58.4192 0 105.984-49.3056 105.984-109.9264V559.9744H826.88c-92.6208 0-167.936-77.824-167.936-173.568s75.264-173.568 167.8336-173.568h215.8592v-4.9152z m61.6448 293.12V710.3488c0 95.744-75.1616 173.568-167.5264 173.568H168.5504C76.1344 883.9168 0.9728 806.0928 0.9728 710.3488c0-6.2464 0-604.16-0.1024-645.5808v-2.304c0-95.744 75.1616-173.568 167.5264-173.568h768.3072c92.3648 0 167.5264 77.824 167.5264 173.568V501.0944z m0-224.6144V496.3328 276.48z"  horiz-adv-x="1126" />

    
    <glyph glyph-name="home_red" unicode="&#58893;" d="M512 888.295619c37.059048 0 74.118095-12.141714 104.643048-36.473905l321.194666-255.658666A162.864762 162.864762 0 0 0 999.619048 468.845714V82.651429c0-90.453333-74.50819-163.791238-166.424381-163.791239H190.805333C98.889143-81.13981 24.380952-7.801905 24.380952 82.70019V468.74819A162.864762 162.864762 0 0 0 86.162286 596.114286L407.356952 851.821714A167.545905 167.545905 0 0 0 512 888.295619zM443.489524 314.075429c-73.094095 0-132.291048-58.270476-132.291048-130.194286v-265.020953h401.554286v265.020953c0 71.92381-59.196952 130.194286-132.291048 130.194286H443.489524z m211.919238-130.194286V-79.238095H368.591238v263.119238c0 40.667429 33.596952 73.776762 74.898286 73.776762h137.020952c41.301333 0 74.898286-33.109333 74.898286-73.776762z"  horiz-adv-x="1024" />

    
    <glyph glyph-name="kefu" unicode="&#58894;" d="M715.453098 221.879466c0-33.475636-27.765086-60.610592-62.028384-60.610592-34.223914 0-61.989 27.174339-61.989 60.610592 0 33.475636 27.765086 60.610592 61.989 60.610592 34.263298 0 62.028384-27.174339 62.028384-60.649975z m-293.4041 0c0-34.026999-28.237683-61.595169-63.012961-61.595169-34.814661 0-63.012961 27.56817-63.012961 61.595169 0 33.987616 28.1983 61.595169 63.012961 61.59517 34.775278 0 63.012961-27.56817 63.012961-61.59517z m-70.101919 296.003385c2.835583-4.686589 71.283412-114.919888 200.184301-162.730972 35.56294-13.193339 71.992308-20.715511 107.2008-28.001385 70.692666-14.650513 137.447021-28.473982 182.973885-86.170224 0.472597-0.63013 0.984578-1.181493 1.535941-1.693473l-0.078766-2.91435c0-21.503173-1.65409-42.29745-4.883505-62.304065-58.483904-91.32941-155.484481-151.15234-275.681704-164.030614-8.979347 11.539248-27.213723 19.494635-48.441214 19.494635-30.049306 0-54.427445-15.910773-54.427445-35.444791 0-19.612784 24.417522-35.484174 54.427445-35.484174 26.977424 0 49.15011 12.799508 53.482251 29.537326 38.752971 4.371524 75.733703 13.390254 110.390831 27.095573a377.447637 377.447637 0 0 1 146.505134 102.75051c-43.518326-129.570401-159.856006-212.865659-311.756624-212.865659h-1.299643c-194.867582 0-331.014961 136.226145-331.014961 331.566324l-0.393831 18.588824c-0.196916 7.955386 1.063344 30.324988 2.402369 51.788777 106.255606 36.744433 150.364678 142.291143 152.294451 147.017115l16.580285 63.800623z m597.008423-193.05596c0.236299 9.64886 0.275682 19.494635 0.078766 29.379793 2.678051 133.508711-37.965309 246.104996-117.597939 325.54071-38.004692 37.886543-84.201069 66.951271-137.131956 86.760971-8.191685 72.14984-88.375678 128.940272-185.730703 128.940272-97.315642 0-177.460252-56.790431-185.691319-128.940272C269.951463 746.738049 223.715703 717.633937 185.789777 679.786777 106.117765 600.232914 65.395639 487.951694 68.152456 354.836814c-0.236299-12.602592-0.157532-24.417522 0.236298-35.956771-20.636745-20.282297-36.783816-50.961732-24.968886-94.007461a98.457752 98.457752 0 0 1 62.658514-66.399908c15.123111-9.097496 32.845506-14.414215 51.788777-14.532364 37.886543-161.825161 175.372947-271.664628 354.841737-271.664628 179.193108 0 316.718895 110.115149 354.369139 272.058459 1.181493-0.275682 2.362986-0.393831 3.623246-0.393831 23.62986 0 45.408715 8.073536 62.540364 21.503173a97.512557 97.512557 0 0 1 47.180954 59.468482c12.996423 47.417253-7.955386 79.829545-31.467097 99.914926z"  horiz-adv-x="1024" />

    
    <glyph glyph-name="more" unicode="&#58895;" d="M690.806154 396.681846L274.747077-19.456a39.148308 39.148308 0 0 1 55.453538-55.453538L773.986462 369.033846a39.069538 39.069538 0 0 1 0 55.453539L330.043077 868.273231a39.148308 39.148308 0 1 1-55.453539-55.374769L690.884923 396.603077z"  horiz-adv-x="1024" />

    
    <glyph glyph-name="quanbushangpin_r" unicode="&#58896;" d="M374.891789 896H133.928421A120.832 120.832 0 0 1 13.473684 775.545263v-240.909474a120.832 120.832 0 0 1 120.454737-120.508631h240.909474a120.832 120.832 0 0 1 120.508631 120.454737V775.545263A120.832 120.832 0 0 1 374.891789 896M917.018947 896h-240.963368a120.832 120.832 0 0 1-120.454737-120.454737v-240.909474a120.832 120.832 0 0 1 120.454737-120.508631h240.909474a120.832 120.832 0 0 1 120.508631 120.454737V775.545263A120.832 120.832 0 0 1 917.018947 896m0-64.026947c31.097263 0 56.427789-25.330526 56.42779-56.42779v-240.909474c0-31.258947-25.330526-56.481684-56.42779-56.481684h-240.963368c-31.097263 0-56.481684 25.276632-56.481684 56.42779V775.545263c0 31.097263 25.330526 56.427789 56.481684 56.42779h240.909474M374.891789 353.872842H133.928421A120.832 120.832 0 0 1 13.473684 233.418105v-240.909473A120.832 120.832 0 0 1 133.928421-128h240.909474a120.832 120.832 0 0 1 120.508631 120.454737v240.963368a120.832 120.832 0 0 1-120.454737 120.454737M917.018947 353.872842h-240.963368a120.832 120.832 0 0 1-120.454737-120.454737v-240.909473A120.832 120.832 0 0 1 676.055579-128h240.909474a120.832 120.832 0 0 1 120.508631 120.454737v240.963368a120.832 120.832 0 0 1-120.454737 120.454737"  horiz-adv-x="1077" />

    
    <glyph glyph-name="quanbushangpin_red" unicode="&#58897;" d="M361.418105 896H120.454737A120.832 120.832 0 0 1 0 775.545263v-240.909474a120.832 120.832 0 0 1 120.454737-120.508631h240.909474a120.832 120.832 0 0 1 120.508631 120.454737V775.545263A120.832 120.832 0 0 1 361.418105 896m0-64.026947c31.151158 0 56.427789-25.330526 56.42779-56.42779v-240.909474c0-31.258947-25.276632-56.481684-56.42779-56.481684H120.454737c-31.097263 0-56.427789 25.276632-56.42779 56.42779V775.545263c0 31.097263 25.330526 56.427789 56.42779 56.42779h240.909474M903.545263 896h-240.963368a120.832 120.832 0 0 1-120.454737-120.454737v-240.909474a120.832 120.832 0 0 1 120.454737-120.508631h240.909473A120.832 120.832 0 0 1 1024 534.581895V775.545263A120.832 120.832 0 0 1 903.545263 896m0-64.026947c31.097263 0 56.427789-25.330526 56.42779-56.42779v-240.909474c0-31.258947-25.330526-56.481684-56.42779-56.481684h-240.963368c-31.097263 0-56.481684 25.276632-56.481684 56.42779V775.545263c0 31.097263 25.330526 56.427789 56.481684 56.42779h240.909473M361.418105 353.872842H120.454737A120.832 120.832 0 0 1 0 233.418105v-240.909473A120.832 120.832 0 0 1 120.454737-128h240.909474a120.832 120.832 0 0 1 120.508631 120.454737v240.963368a120.832 120.832 0 0 1-120.454737 120.454737m0-63.973053c31.151158 0 56.427789-25.330526 56.42779-56.481684v-240.909473c0-31.151158-25.276632-56.481684-56.42779-56.481685H120.454737a56.589474 56.589474 0 0 0-56.42779 56.42779v240.963368c0 31.097263 25.330526 56.481684 56.42779 56.481684h240.909474M903.545263 353.872842h-240.963368a120.832 120.832 0 0 1-120.454737-120.454737v-240.909473A120.832 120.832 0 0 1 662.581895-128h240.909473A120.832 120.832 0 0 1 1024-7.545263v240.963368a120.832 120.832 0 0 1-120.454737 120.454737m0-63.973053c31.097263 0 56.427789-25.330526 56.42779-56.481684v-240.909473a56.589474 56.589474 0 0 0-56.42779-56.481685h-240.963368a56.589474 56.589474 0 0 0-56.481684 56.42779v240.963368c0 31.097263 25.330526 56.481684 56.481684 56.481684h240.909473"  horiz-adv-x="1024" />

    
    <glyph glyph-name="serch1" unicode="&#58898;" d="M451.2 824.64c-210.304 0-380.8-172.992-380.8-386.304 0-213.376 170.496-386.24 380.8-386.24S832 224.896 832 438.336c0 213.312-170.496 386.304-380.8 386.304m560-939.648a43.136 43.136 0 0 0-61.696 0l-204.16 207.04A445.504 445.504 0 0 0 451.2-19.2c-249.216-0.064-451.2 204.8-451.2 457.536C0 691.136 201.984 895.936 451.2 895.936c249.344 0 451.2-204.8 451.2-457.6a459.52 459.52 0 0 0-96.512-282.304l205.44-208.512a44.736 44.736 0 0 0 0-62.528"  horiz-adv-x="1024" />

    
    <glyph glyph-name="shouhou" unicode="&#58899;" d="M1081.878261 383.198609a29.206261 29.206261 0 0 1-41.984 0.044521l-62.330435-62.820173c3.383652 23.329391 5.075478 47.104 5.075478 70.967652C982.594783 663.952696 762.212174 885.76 491.297391 885.76 220.382609 885.76 0 663.952696 0 391.390609 0 118.784 220.382609-103.067826 491.297391-103.067826a487.513043 487.513043 0 0 1 342.105044 139.353043 29.829565 29.829565 0 0 1-20.034783 51.244522 29.384348 29.384348 0 0 1-21.236869-8.45913 428.210087 428.210087 0 0 0-300.833392-122.657392c-238.369391 0-432.261565 195.094261-432.261565 434.93287 0 239.794087 193.892174 434.93287 432.261565 434.93287 238.32487 0 432.217043-195.138783 432.217044-434.977392a440.765217 440.765217 0 0 0-7.078957-78.536348l-70.032695 70.433392a29.384348 29.384348 0 0 1-41.805913 0.044521 29.606957 29.606957 0 0 1-0.044522-42.162087l117.626435-118.427826a29.384348 29.384348 0 0 1 21.058782-8.770782c8.102957 0 15.493565 3.116522 20.925218 8.770782l117.626434 118.427826a29.829565 29.829565 0 0 1 0.044522 42.073044M660.390957 421.62087c16.294957 0 29.517913 13.356522 29.517913 29.740521a29.651478 29.651478 0 0 1-29.517913 29.740522h-69.765566l95.142957 168.20313a29.785043 29.785043 0 0 1-10.952348 40.514783 28.805565 28.805565 0 0 1-22.394435 2.849391 29.696 29.696 0 0 1-17.897739-13.935304l-111.749565-197.676522h-48.706783l-111.749565 197.676522a29.295304 29.295304 0 0 1-40.20313 11.130435 29.161739 29.161739 0 0 1-13.935305-17.942261 29.42887 29.42887 0 0 1 2.849392-22.572522l95.142956-168.292174H322.203826c-16.294957 0-29.517913-13.312-29.517913-29.696 0-16.384 13.222957-29.740522 29.517913-29.740521h139.442087v-79.827479H350.831304c-16.250435 0-29.517913-13.356522-29.517913-29.740521 0-16.384 13.267478-29.696 29.562435-29.696h110.859131v-163.617392c0-16.384 13.222957-29.740522 29.517913-29.740521 16.294957 0 29.517913 13.356522 29.517913 29.740521v163.617392h111.081739c16.250435 0 29.517913 13.356522 29.517913 29.696a29.651478 29.651478 0 0 1-29.517913 29.740521h-111.081739v79.827479h139.664695z"  horiz-adv-x="1113" />

    
    <glyph glyph-name="xcarma" unicode="&#58900;" d="M550.0928 112.0768a235.6736 235.6736 0 0 0-235.7248 235.1616 235.6736 235.6736 0 0 0 235.7248 235.2128c130.048 0 235.776-105.472 235.776-235.2128a235.6736 235.6736 0 0 0-235.776-235.1616z m0 411.9552a177.2032 177.2032 0 0 1-177.152-176.7936 177.2032 177.2032 0 0 1 354.3552 0 177.2032 177.2032 0 0 1-177.152 176.7936zM1005.6704-96.9728H120.7296c-66.56 0-120.7296 52.7872-120.7296 117.6576V647.4752c0 64.8704 54.1696 117.6576 120.7296 117.6576h120.7808c22.1184 0 40.2944-9.8304 40.2944-31.5904s-17.9712-34.7136-40.2944-34.7136H120.7296c-22.1184 0-55.0912-29.7984-55.0912-51.5584V20.48c0-21.5552 33.024-57.2416 55.296-57.2416h884.736c22.1184 0 54.272 47.7184 54.272 69.4784V659.7632c0 21.504-32.1536 39.2704-54.528 39.2704H563.2c-22.1184 0-40.3456 13.0048-40.3456 34.7136 0 21.76 18.0224 31.5904 40.3456 31.5904h442.4704c66.56 0 120.7296-52.7872 120.7296-117.6064v-626.8416c-0.2048-65.024-54.4256-117.8624-120.7296-117.8624zM897.4336 604.8256c0-26.88 22.016-48.5376 48.9984-48.5376 27.136 0 48.9984 21.8112 48.9984 48.5376a48.8448 48.8448 0 0 1-48.9984 48.4864 48.64 48.64 0 0 1-48.9984-48.4864zM489.2672 827.2896h-163.328c-22.3744 0-37.7856 11.9808-37.7856 34.3552 0 22.1696 15.1552 34.3552 37.8368 34.3552h163.2768c22.4256 0 41.472-11.9808 41.472-34.3552 0-22.1696-18.7904-34.3552-41.472-34.3552z"  horiz-adv-x="1126" />

    
    <glyph glyph-name="Star" unicode="&#58901;" d="M514.389333 25.941333l-206.984533-108.7488a68.266667 68.266667 0 0 0-98.986667 71.953067L247.808 219.477333a68.266667 68.266667 0 0 1-19.592533 60.416L60.757333 443.118933a68.266667 68.266667 0 0 0 37.888 116.5312l231.355734 33.5872a68.266667 68.266667 0 0 1 51.4048 37.341867L484.898133 840.226133a68.266667 68.266667 0 0 0 122.4704 0l103.424-209.646933a68.266667 68.266667 0 0 1 51.4048-37.341867l231.424-33.5872a68.266667 68.266667 0 0 0 37.819734-116.462933l-167.458134-163.157333a68.266667 68.266667 0 0 1-19.592533-60.484267l39.5264-230.4a68.266667 68.266667 0 0 0-99.054933-71.953067l-206.984534 108.7488a68.266667 68.266667 0 0 1-63.488 0z"  horiz-adv-x="1092" />

    
    <glyph glyph-name="close" unicode="&#58902;" d="M692.508444 248.263111a32.028444 32.028444 0 0 0-45.283555-45.283555L511.715556 338.488889l-136.533334-136.476445a32.256 32.256 0 0 0-45.624889 45.568l136.533334 136.533334L330.524444 519.736889a31.971556 31.971556 0 1 0 45.226667 45.283555l135.566222-135.566222 137.500445 137.500445a32.199111 32.199111 0 1 0 45.624889-45.624889L556.942222 383.829333l135.566222-135.566222zM512 896a512 512 0 1 1 0-1024A512 512 0 0 1 512 896z"  horiz-adv-x="1024" />

    
    <glyph glyph-name="xxuanzhong_d" unicode="&#58908;" d="M512 384m-512 0a512 512 0 1 1 1024 0 512 512 0 1 1-1024 0ZM788.48 588.8c-10.24 0-15.36-5.12-20.48-10.24l-312.32-327.68-148.48 153.6c-5.12 10.24-15.36 10.24-20.48 10.24-15.36 0-30.72-10.24-30.72-30.72 0-10.24 5.12-15.36 10.24-20.48l168.96-174.08c5.12-5.12 10.24-10.24 20.48-10.24s15.36 5.12 20.48 10.24L808.96 537.6c5.12 5.12 10.24 10.24 10.24 20.48 0 15.36-15.36 30.72-30.72 30.72z"  horiz-adv-x="1024" />

    
    <glyph glyph-name="changyongqindan_red" unicode="&#58911;" d="M829.978947 896h-646.736842C80.842105 896 0 809.768421 0 707.368421v-652.126316C0-41.768421 80.842105-128 183.242105-128h646.736842c102.4 0 183.242105 86.231579 183.242106 188.631579v646.736842c0 102.4-80.842105 188.631579-183.242106 188.631579m0-64.673684c64.673684 0 123.957895-53.894737 123.957895-123.957895v-652.126316c0-70.063158-53.894737-123.957895-123.957895-123.957894h-646.736842c-64.673684 0-123.957895 53.894737-123.957894 123.957894V707.368421c0 70.063158 53.894737 123.957895 123.957894 123.957895h646.736842M220.968421 610.357895c-16.168421 0-32.336842-16.168421-32.336842-32.336842s16.168421-32.336842 32.336842-32.336842 32.336842 16.168421 32.336842 32.336842-16.168421 32.336842-32.336842 32.336842M792.252632 610.357895H350.315789c-16.168421 0-32.336842-16.168421-32.336842-32.336842s16.168421-32.336842 32.336842-32.336842h441.936843c16.168421 0 32.336842 16.168421 32.336842 32.336842s-16.168421 32.336842-32.336842 32.336842M220.968421 416.336842c-16.168421 0-32.336842-16.168421-32.336842-32.336842s16.168421-32.336842 32.336842-32.336842 32.336842 16.168421 32.336842 32.336842-16.168421 32.336842-32.336842 32.336842M792.252632 416.336842H350.315789c-16.168421 0-32.336842-16.168421-32.336842-32.336842s16.168421-32.336842 32.336842-32.336842h441.936843c16.168421 0 32.336842 16.168421 32.336842 32.336842s-16.168421 32.336842-32.336842 32.336842M220.968421 222.315789c-16.168421 0-32.336842-16.168421-32.336842-32.336842s16.168421-32.336842 32.336842-32.336842 32.336842 16.168421 32.336842 32.336842-16.168421 32.336842-32.336842 32.336842M792.252632 222.315789H350.315789c-16.168421 0-32.336842-16.168421-32.336842-32.336842s16.168421-32.336842 32.336842-32.336842h441.936843c16.168421 0 32.336842 16.168421 32.336842 32.336842s-16.168421 32.336842-32.336842 32.336842"  horiz-adv-x="1024" />

    
    <glyph glyph-name="daishouhuo" unicode="&#58912;" d="M136.533333 427.885714c-4.87619-9.752381-4.87619-19.504762 0-29.257143 4.87619-9.752381 14.628571-14.628571 24.380953-14.628571h151.161904c9.752381 0 14.628571 4.87619 19.504762 9.752381 4.87619 4.87619 9.752381 14.628571 9.752381 19.504762V564.419048c0 14.628571-14.628571 29.257143-29.257143 29.257142s-29.257143-14.628571-29.257142-29.257142v-121.904762H160.914286c-14.628571 0-19.504762-4.87619-24.380953-14.628572M258.925714 162.133333c48.761905 0 92.647619-39.009524 92.647619-87.771428s-39.009524-87.771429-92.647619-87.771429c-48.761905 0-92.647619 39.009524-92.647619 87.771429s43.885714 87.771429 92.647619 87.771428zM449.097143 654.628571v-551.009523h-48.761905c-9.752381 29.257143-24.380952 58.514286-48.761905 78.019047-24.380952 19.504762-58.514286 34.133333-92.647619 34.133334s-68.266667-9.752381-92.647619-34.133334c-24.380952-19.504762-43.885714-48.761905-48.761905-78.019047h-48.761904V410.819048l121.904762 195.047619c19.504762 29.257143 48.761905 43.885714 87.771428 43.885714h170.666667zM878.201905 132.87619c48.761905 0 92.647619-39.009524 92.647619-87.771428s-39.009524-87.771429-92.647619-87.771429c-48.761905 0-92.647619 39.009524-92.647619 87.771429 0 43.885714 43.885714 87.771429 92.647619 87.771428zM619.76381 805.790476h351.085714c29.257143 0 58.514286-9.752381 78.019047-29.257143 19.504762-19.504762 34.133333-48.761905 34.133334-78.019047V186.514286c0-39.009524-34.133333-73.142857-73.142857-78.019048-14.628571 24.380952-29.257143 43.885714-53.638096 53.638095-24.380952 14.628571-48.761905 19.504762-78.019047 19.504762-29.257143 0-53.638095-9.752381-78.019048-19.504762-24.380952-14.628571-39.009524-34.133333-53.638095-58.514285h-238.933333V698.514286c0 63.390476 48.761905 107.27619 112.152381 107.27619z m468.114285 9.752381c-34.133333 29.257143-73.142857 48.761905-117.028571 48.761905h-351.085714c-43.885714 0-82.895238-14.628571-117.028572-43.885714-29.257143-29.257143-48.761905-63.390476-53.638095-107.276191H273.554286c-58.514286 0-102.4-24.380952-136.533334-73.142857L15.11619 435.2c-4.87619-4.87619-4.87619-9.752381-4.87619-14.628571v-341.333334c0-9.752381 4.87619-14.628571 9.752381-19.504762 4.87619-4.87619 14.628571-9.752381 19.504762-9.752381h73.142857c9.752381-73.142857 73.142857-126.780952 146.285714-126.780952s136.533333 53.638095 146.285715 126.780952h73.142857c4.87619 0 9.752381 0 9.752381 4.876191h243.809523v-9.752381c0-78.019048 68.266667-146.285714 146.285715-146.285714 82.895238 0 146.285714 63.390476 146.285714 146.285714v14.628571c63.390476 9.752381 112.152381 63.390476 112.152381 131.657143V698.514286c0 43.885714-14.628571 87.771429-48.761905 117.028571z"  horiz-adv-x="1170" />

    
    <glyph glyph-name="my" unicode="&#58914;" d="M670.72-71.68H322.56c-143.36 0-261.12 117.76-261.12 261.12 0 128 92.16 235.52 215.04 261.12h51.2c40.96-40.96 102.4-66.56 168.96-66.56s128 25.6 174.08 66.56h46.08c122.88-20.48 215.04-133.12 215.04-261.12 0-143.36-117.76-261.12-261.12-261.12M665.6 537.6l-5.12-10.24c-35.84-51.2-97.28-87.04-163.84-87.04-66.56 0-128 35.84-163.84 87.04L327.68 537.6c-10.24 15.36-15.36 25.6-20.48 40.96 0 5.12-5.12 10.24-5.12 15.36 0 5.12 0 10.24-5.12 15.36 0 10.24-5.12 20.48-5.12 35.84C291.84 752.64 378.88 844.8 491.52 844.8s199.68-87.04 199.68-199.68c0-10.24 0-20.48-5.12-35.84 0-5.12 0-10.24-5.12-15.36 0-5.12-5.12-10.24-5.12-15.36 0-15.36-5.12-25.6-10.24-40.96m56.32-30.72h-10.24c10.24 15.36 15.36 30.72 20.48 51.2 0 5.12 5.12 15.36 5.12 20.48 0 5.12 5.12 10.24 5.12 15.36 5.12 15.36 5.12 30.72 5.12 46.08 0 143.36-112.64 256-256 256s-256-112.64-256-256c0-15.36 0-30.72 5.12-46.08 0-5.12 0-10.24 5.12-15.36 0-5.12 5.12-15.36 5.12-20.48 5.12-15.36 15.36-35.84 20.48-51.2-153.6-25.6-271.36-153.6-271.36-312.32C0 15.36 143.36-128 322.56-128h348.16c174.08 0 322.56 143.36 322.56 322.56-5.12 158.72-117.76 286.72-271.36 312.32"  horiz-adv-x="1024" />

    
    <glyph glyph-name="kongyemian" unicode="&#58925;" d="M1237.835294 324.79874500000005c0-12.047059 9.035294-22.086275 22.086275-22.086274 12.047059 0 22.086275 9.035294 22.086274 22.086274 0 12.047059-9.035294 22.086275-22.086274 22.086275-4.015686 0-7.027451-1.003922-11.043138-3.011765-7.027451-4.015686-11.043137-11.043137-11.043137-19.07451M16.062745 496.469333H0c0-9.035294 7.027451-16.062745 16.062745-16.062745s16.062745 7.027451 16.062745 16.062745C32.12549 505.504627 25.098039 513.5360000000001 16.062745 513.5360000000001c-3.011765 0-5.019608-1.003922-8.031372-2.007843C3.011765 508.516392 0 503.496784 0 496.469333M1062.14902 511.498039c0 29.113725 24.094118 53.207843 53.207843 53.207843s53.207843-24.094118 53.207843-53.207843-24.094118-53.207843-53.207843-53.207843c-28.109804-1.003922-53.207843 24.094118-53.207843 53.207843m87.341176 0c0 19.07451-15.058824 34.133333-34.133333 34.133334s-34.133333-15.058824-34.133334-34.133334 15.058824-34.133333 34.133334-34.133333c19.07451 1.003922 34.133333 15.058824 34.133333 34.133333M1286.023529 614.901961h-16.062745c-6.023529 0-11.043137-5.019608-11.043137-11.043137 0-6.023529 5.019608-11.043137 11.043137-11.043138h16.062745v-16.062745c0-6.023529 5.019608-11.043137 11.043138-11.043137 6.023529 0 11.043137 5.019608 11.043137 11.043137v16.062745h16.062745c6.023529 0 11.043137 5.019608 11.043137 11.043138 0 6.023529-5.019608 11.043137-11.043137 11.043137h-16.062745v16.062745c0 6.023529-5.019608 11.043137-11.043137 11.043137-6.023529 0-11.043137-5.019608-11.043138-11.043137V614.901961zM1103.309804 860.862745c0 8.031373 7.027451 14.054902 14.054902 14.054902s14.054902-7.027451 14.054902-14.054902-7.027451-14.054902-14.054902-14.054902c-7.027451-1.003922-14.054902 5.019608-14.054902 14.054902z m49.192157 0c0 19.07451-15.058824 34.133333-34.133334 34.133333S1084.235294 879.937255 1084.235294 860.862745s15.058824-34.133333 34.133333-34.133333c18.070588 0 33.129412 15.058824 34.133334 34.133333zM112.439216 156.10980400000005H85.333333c-5.019608 0-9.035294-4.015686-9.035294-9.035294s3.011765-9.035294 9.035294-9.035294h27.105883v-27.105883c0-5.019608 4.015686-9.035294 9.035294-9.035294s9.035294 3.011765 9.035294 9.035294v27.105883h27.105882c5.019608 0 9.035294 4.015686 9.035294 9.035294s-3.011765 9.035294-9.035294 9.035294H130.509804V183.215686c0 5.019608-4.015686 9.035294-9.035294 9.035294s-9.035294-3.011765-9.035294-9.035294v-27.105882zM432.690196-79.81176500000004c0-23.090196 93.364706-41.160784 207.811765-41.160784 114.447059 0 207.811765 18.070588 207.811764 41.160784s-93.364706 41.160784-207.811764 41.160785c-114.447059 0-207.811765-19.07451-207.811765-41.160785M337.317647 751.435294c-3.011765 0-5.019608 1.003922-7.027451 3.011765L269.05098 815.686275c-4.015686 4.015686-4.015686 11.043137 0 15.058823 4.015686 4.015686 11.043137 4.015686 15.058824 0l61.239216-61.239216c4.015686-4.015686 4.015686-11.043137 0-15.058823-3.011765-2.007843-6.023529-3.011765-8.031373-3.011765m58.227451 50.196079c-6.023529 0-11.043137 5.019608-11.043137 11.043137v70.27451c0 6.023529 5.019608 11.043137 11.043137 11.043137 6.023529 0 11.043137-5.019608 11.043137-11.043137v-71.278432c-1.003922-6.023529-6.023529-10.039216-11.043137-10.039215M295.152941 675.137255h-77.301961c-6.023529 0-11.043137 5.019608-11.043137 11.043137 0 6.023529 5.019608 11.043137 11.043137 11.043137h77.301961c6.023529 0 11.043137-5.019608 11.043137-11.043137 0-6.023529-5.019608-11.043137-11.043137-11.043137M415.623529 650.039216c-25.098039 0-44.172549-20.078431-44.172549-44.172549v-514.007843c0-25.098039 20.078431-44.172549 44.172549-44.172549h436.705883c25.098039 0 44.172549 20.078431 44.172549 44.172549V604.862745c0 25.098039-20.078431 44.172549-44.172549 44.172549 0 1.003922-436.705882 1.003922-436.705883 1.003922m436.705883-625.443138H415.623529c-36.141176 0-66.258824 30.117647-66.258823 66.258824V604.862745c0 36.141176 30.117647 66.258824 66.258823 66.258824h436.705883c36.141176 0 66.258824-30.117647 66.258823-66.258824v-514.007843c0-36.141176-29.113725-66.258824-66.258823-66.258824M492.92549 722.321569c-25.098039 0-44.172549-20.078431-44.172549-44.172549V163.13725499999998c0-25.098039 20.078431-44.172549 44.172549-44.172549h436.705883c25.098039 0 44.172549 20.078431 44.172549 44.172549V677.145098c0 25.098039-20.078431 44.172549-44.172549 44.172549l-436.705883 1.003922z m437.709804-625.443138H492.92549c-36.141176 0-66.258824 30.117647-66.258823 66.258824V677.145098c0 36.141176 30.117647 66.258824 66.258823 66.258824h436.705883c36.141176 0 66.258824-30.117647 66.258823-66.258824V163.13725499999998c1.003922-36.141176-29.113725-66.258824-65.254902-66.258824zM758.964706 202.29019600000004H521.035294c-6.023529 0-11.043137 5.019608-11.043137 11.043137 0 6.023529 5.019608 11.043137 11.043137 11.043138h237.929412c6.023529 0 11.043137-5.019608 11.043137-11.043138-1.003922-6.023529-5.019608-11.043137-11.043137-11.043137m128.501961 398.556863H520.031373c-6.023529 0-11.043137 5.019608-11.043138 10.039216s5.019608 11.043137 11.043138 11.043137h366.431372c6.023529 0 11.043137-5.019608 11.043137-11.043137 0-6.023529-5.019608-10.039216-10.039215-10.039216M790.086275 326.776471H631.466667c-6.023529 0-11.043137 5.019608-11.043138 11.043137 0 6.023529 5.019608 11.043137 11.043138 11.043137h157.615686c6.023529 0 11.043137-5.019608 11.043137-11.043137 0-6.023529-4.015686-11.043137-10.039215-11.043137m65.254901 110.431372c0-11.043137 9.035294-20.078431 20.078432-20.078431s20.078431 9.035294 20.078431 20.078431-9.035294 20.078431-20.078431 20.078432c-11.043137-1.003922-20.078431-10.039216-20.078432-20.078432m-325.270588-2.007843c0-11.043137 9.035294-20.078431 20.078432-20.078431s20.078431 9.035294 20.078431 20.078431-9.035294 20.078431-20.078431 20.078431c-12.047059-1.003922-20.078431-10.039216-20.078432-20.078431"  horiz-adv-x="1335" />

    
    <glyph glyph-name="wode" unicode="&#58916;" d="M665.6 537.6l-5.12-10.24c-35.84-51.2-97.28-87.04-163.84-87.04-66.56 0-128 35.84-163.84 87.04L327.68 537.6c-10.24 15.36-15.36 25.6-20.48 40.96 0 5.12-5.12 10.24-5.12 15.36 0 5.12 0 10.24-5.12 15.36 0 10.24-5.12 20.48-5.12 35.84C291.84 752.64 378.88 844.8 491.52 844.8s199.68-87.04 199.68-199.68c0-10.24 0-20.48-5.12-35.84 0-5.12 0-10.24-5.12-15.36 0-5.12-5.12-10.24-5.12-15.36 0-15.36-5.12-25.6-10.24-40.96m56.32-30.72h-10.24c10.24 15.36 15.36 30.72 20.48 51.2 0 5.12 5.12 15.36 5.12 20.48 0 5.12 5.12 10.24 5.12 15.36 5.12 15.36 5.12 30.72 5.12 46.08 0 143.36-112.64 256-256 256s-256-112.64-256-256c0-15.36 0-30.72 5.12-46.08 0-5.12 0-10.24 5.12-15.36 0-5.12 5.12-15.36 5.12-20.48 5.12-15.36 15.36-35.84 20.48-51.2-153.6-25.6-271.36-153.6-271.36-312.32C0 15.360000000000014 143.36-128 322.56-128h348.16c174.08 0 322.56 143.36 322.56 322.56-5.12 158.72-117.76 286.72-271.36 312.32"  horiz-adv-x="1024" />

    
    <glyph glyph-name="xuanzhong" unicode="&#58917;" d="M512 896C228.072727 896 0 667.927273 0 384s228.072727-512 512-512 512 228.072727 512 512S795.927273 896 512 896zM460.8 104.72727299999997L186.181818 379.345455l69.818182 55.854545 158.254545-125.672727c65.163636 74.472727 209.454545 228.072727 404.945455 349.090909l18.618182-32.581818c-181.527273-167.563636-330.472727-400.290909-377.018182-521.309091z"  horiz-adv-x="1024" />

    
    <glyph glyph-name="xian" unicode="&#58927;" d="M448 389h385v-12H448zM440 392h42v-17h-42zM480 392h42v-17h-42zM520 392h42v-17h-42zM560 392h42v-17h-42zM600 392h42v-17h-42zM640 392h42v-17h-42zM680 392h42v-17h-42zM720 392h42v-17h-42zM760 392h42v-17h-42zM800 392h42v-17h-42z"  horiz-adv-x="1280" />

    
    <glyph glyph-name="StarCopy" unicode="&#58919;" d="M774.4-128c-19.2 0-32 0-44.8 6.4l-192 102.4c-19.2 6.4-32 6.4-44.8 6.4l-192-102.4c-44.8-25.6-102.4-12.8-134.4 38.4-12.8 19.2-12.8 38.4-12.8 57.6l38.4 224c0 6.4 0 19.2-12.8 32L32 384c-38.4 38.4-38.4 96 0 134.4l6.4 6.4 51.2 19.2L307.2 576c6.4 0 19.2 12.8 32 19.2l96 192c0 32 19.2 44.8 44.8 57.6 25.6 6.4 51.2 6.4 70.4 0 19.2-12.8 38.4-32 44.8-51.2l96-198.4c6.4-12.8 12.8-12.8 19.2-12.8l224-32c51.2-12.8 89.6-57.6 76.8-108.8 0-12.8-6.4-38.4-25.6-57.6L832 230.4c-6.4-6.4-12.8-19.2-12.8-32l38.4-211.2c12.8-51.2-25.6-102.4-76.8-115.2h-6.4z m-268.8 185.6c19.2 0 38.4-6.4 57.6-12.8l192-102.4h25.6l12.8 12.8c6.4 6.4 6.4 19.2 6.4 25.6l-38.4 211.2c0 32 6.4 64 25.6 83.2l153.6 153.6 12.8 12.8c6.4 19.2-12.8 38.4-25.6 38.4L710.4 512c-32 0-64 19.2-76.8 51.2L537.6 768c0 6.4-12.8 12.8-19.2 19.2h-25.6c0-6.4-6.4-12.8-6.4-19.2L384 556.8c-19.2-12.8-44.8-38.4-76.8-38.4l-204.8-32-32-12.8c-6.4-6.4-6.4-12.8-6.4-19.2 0-6.4 6.4-12.8 12.8-19.2l160-153.6c19.2-25.6 32-57.6 25.6-96l-38.4-211.2c0-6.4 0-12.8 6.4-19.2 6.4-12.8 25.6-19.2 38.4-12.8l198.4 102.4c12.8 6.4 25.6 12.8 38.4 12.8z"  horiz-adv-x="1024" />

    


  </font>
</defs>
</svg>
